#!OML:ASF H:\Terrain\Patient Classification 1\PLAYGROUND\JustinFriday\JustinFriday.ASF
:FULLY-SPECIFIED
:DEGREES
1285
root -10.5303 17.9999 7.84613 -13.8884 13.2661 -6.96341
lowerback 16.7646 -1.26019 -2.80972
upperback -5.70147 -2.84171 -3.27714
thorax -16.0673 -1.23319 -1.29714
lowerneck 10.5453 -7.8609 -4.24896
upperneck 20.1399 -12.3926 8.97825
head 5.22582 -6.06026 3.312
rclavicle -5.56597e-015 -5.88403e-014
rhumerus 62.3471 9.25672 -77.5194
rradius 95.0626
rwrist -383.855
rhand -15.3257 -36.8458
rfingers 7.12502
rthumb 10.8506 -66.5454
lclavicle -5.56597e-015 -5.88403e-014
lhumerus 45.6753 -24.6046 93.6954
lradius 84.0892
lwrist 21.7285
lhand -19.2913 -13.3469
lfingers 7.12502
lthumb 7.02397 16.5165
rfemur 0.885288 -17.403 16.8844
rtibia 79.2967
rfoot 4.55123 -11.6259
rtoes 2.65342
lfemur -6.05836 1.21898 2.12167
ltibia 68.2503
lfoot 0.443008 -6.23292
ltoes -6.2445
1286
root -10.6972 18.022 7.86978 -14.1718 13.687 -8.37211
lowerback 16.9287 -1.41296 -1.93286
upperback -6.21273 -2.81025 -2.83512
thorax -16.8125 -1.27133 -1.29903
lowerneck 12.1562 -7.51049 -5.27107
upperneck 19.8843 -12.0776 9.60648
head 4.96253 -6.0073 3.76594
rclavicle -3.89618e-014 1.59028e-014
rhumerus 61.4635 10.2416 -77.5508
rradius 95.2295
rwrist -383.226
rhand -15.0618 -35.6812
rfingers 7.12502
rthumb 11.1052 -65.3673
lclavicle -3.89618e-014 1.59028e-014
lhumerus 44.3037 -24.1881 93.9413
lradius 84.7685
lwrist 22.2847
lhand -19.3799 -12.473
lfingers 7.12502
lthumb 6.93847 17.3933
rfemur 0.724473 -16.8448 18.9645
rtibia 78.3134
rfoot 4.47034 -13.1296
rtoes 4.56255
lfemur -6.29061 1.38103 3.80973
ltibia 66.8438
lfoot 0.344633 -6.29225
ltoes -6.63524
1287
root -10.8571 18.0442 7.89426 -14.4777 14.4912 -8.99514
lowerback 17.106 -1.6095 -1.98002
upperback -5.63533 -3.03357 -2.60915
thorax -16.1963 -1.35353 -0.935224
lowerneck 9.30036 -7.57581 -4.98044
upperneck 20.6825 -12.1169 9.24931
head 5.62745 -5.90667 3.45903
rclavicle 1.11319e-014 -3.33958e-014
rhumerus 62.5665 11.098 -77.4002
rradius 95.5925
rwrist -382.323
rhand -15.5752 -37.217
rfingers 7.12502
rthumb 10.6099 -66.9291
lclavicle 1.11319e-014 -3.33958e-014
lhumerus 45.2944 -23.6771 93.6204
lradius 84.575
lwrist 22.7999
lhand -18.626 -12.4202
lfingers 7.12502
lthumb 7.66616 17.4208
rfemur 0.920028 -16.6554 19.675
rtibia 77.3504
rfoot 4.27672 -14.0721
rtoes 6.00178
lfemur -6.35259 1.09061 4.25814
ltibia 65.3605
lfoot 0.531276 -5.57888
ltoes -5.07294
1288
root -11.0103 18.0899 7.93481 -14.6609 15.4771 -9.15183
lowerback 16.9955 -1.75018 -2.67592
upperback -6.04725 -3.34463 -2.22833
thorax -16.5673 -1.38621 -0.0136386
lowerneck 12.4621 -7.28532 -7.41697
upperneck 20.0392 -12.1211 10.5285
head 5.13865 -6.14775 4.41664
rclavicle 9.54166e-015 -4.29375e-014
rhumerus 61.561 12.7155 -77.3489
rradius 95.8956
rwrist -381.45
rhand -15.9226 -38.4288
rfingers 7.12502
rthumb 10.2749 -68.1579
lclavicle 9.54166e-015 -4.29375e-014
lhumerus 43.8222 -22.9576 94.6787
lradius 84.8974
lwrist 22.3593
lhand -18.8157 -10.3106
lfingers 7.12502
lthumb 7.48307 19.5371
rfemur 1.15393 -16.563 19.7668
rtibia 76.251
rfoot 3.8901 -14.839
rtoes 7.06404
lfemur -6.39553 0.728496 4.01759
ltibia 63.8708
lfoot 0.368491 -4.84267
ltoes -5.81035
1289
root -11.1671 18.1426 7.9812 -14.9078 16.4064 -9.39389
lowerback 17.1058 -1.89084 -3.29925
upperback -5.61236 -3.60891 -1.84803
thorax -16.0302 -1.42481 0.853779
lowerneck 9.56685 -6.94579 -7.89345
upperneck 20.5147 -11.6048 10.5628
head 5.71632 -5.8111 4.38798
rclavicle -1.03368e-014 6.36111e-015
rhumerus 62.6204 13.6919 -76.8767
rradius 96.0318
rwrist -380.803
rhand -16.0353 -38.3324
rfingers 7.12502
rthumb 10.1661 -68.0668
lclavicle -1.03368e-014 6.36111e-015
lhumerus 44.6299 -22.3471 94.5225
lradius 85.12
lwrist 22.2734
lhand -19.1832 -9.76014
lfingers 7.12502
lthumb 7.1283 20.0998
rfemur 1.37218 -16.393 20.0582
rtibia 75.1538
rfoot 3.1112 -16.0379
rtoes 11.5003
lfemur -6.42107 0.460799 3.97057
ltibia 62.3542
lfoot 0.0223419 -4.43863
ltoes -7.40487
1290
root -11.3266 18.1826 8.01995 -15.1591 17.3894 -9.73614
lowerback 17.2148 -2.04046 -3.73117
upperback -4.93704 -3.85739 -1.67078
thorax -15.2275 -1.50827 1.36709
lowerneck 7.41625 -7.072 -7.90911
upperneck 20.5005 -11.7081 10.7551
head 6.08104 -5.77362 4.34907
rclavicle -7.95139e-016 4.45278e-014
rhumerus 63.8944 14.255 -76.5715
rradius 96.4239
rwrist -380.07
rhand -16.3134 -38.2473
rfingers 7.12502
rthumb 9.89785 -67.9947
lclavicle -7.95139e-016 4.45278e-014
lhumerus 46.0055 -22.0137 93.9002
lradius 85.0644
lwrist 22.4605
lhand -19.2834 -9.40465
lfingers 7.12502
lthumb 7.03163 20.4585
rfemur 1.52793 -16.35 20.4386
rtibia 74.0252
rfoot 2.32606 -17.3288
rtoes 15.4388
lfemur -6.58484 0.175669 4.0444
ltibia 60.8628
lfoot -0.273264 -4.04064
ltoes -8.76528
1291
root -11.4829 18.2078 8.04554 -15.3081 18.2349 -10.4491
lowerback 17.2026 -2.22091 -3.64595
upperback -5.07236 -4.02247 -1.2198
thorax -15.3427 -1.55744 1.88047
lowerneck 7.56308 -6.68941 -8.88976
upperneck 21.0773 -11.303 11.0215
head 6.26763 -5.62615 4.62994
rclavicle -1.11319e-014 1.74931e-014
rhumerus 64.016 15.5115 -76.3052
rradius 96.4916
rwrist -379.255
rhand -17.0009 -38.3485
rfingers 7.12502
rthumb 9.23446 -68.1263
lclavicle -1.11319e-014 1.74931e-014
lhumerus 45.6204 -21.378 94.3748
lradius 85.3016
lwrist 22.7599
lhand -19.2284 -8.03179
lfingers 7.12502
lthumb 7.08466 21.8296
rfemur 1.41751 -16.282 21.3829
rtibia 72.8476
rfoot 1.52442 -18.4435
rtoes 16.4055
lfemur -7.05466 0.0589798 4.55127
ltibia 59.4539
lfoot -0.404675 -3.46308
ltoes -8.46923
1292
root -11.6212 18.2391 8.08762 -15.4924 19.2564 -10.676
lowerback 17.2665 -2.39991 -3.80734
upperback -5.16629 -4.28215 -1.03162
thorax -15.4543 -1.6424 2.26642
lowerneck 7.94975 -6.51009 -10.1078
upperneck 20.9658 -11.1877 11.5095
head 6.24749 -5.64936 5.01611
rclavicle 2.78299e-015 1.74931e-014
rhumerus 63.903 16.6841 -76.1684
rradius 96.6599
rwrist -378.419
rhand -17.8755 -38.3284
rfingers 7.12502
rthumb 8.39046 -68.1417
lclavicle 2.78299e-015 1.74931e-014
lhumerus 45.0895 -20.7968 94.6304
lradius 85.6126
lwrist 23.3906
lhand -19.3598 -7.41908
lfingers 7.12502
lthumb 6.95785 22.4466
rfemur 1.75582 -16.2802 21.5168
rtibia 71.5361
rfoot 0.580254 -19.1464
rtoes 17.67
lfemur -7.17016 -0.345048 4.29564
ltibia 57.9833
lfoot -0.53622 -2.43258
ltoes -5.33963
1293
root -11.7591 18.2791 8.13444 -15.6065 20.3448 -10.7415
lowerback 17.3168 -2.56484 -4.14767
upperback -5.12585 -4.56791 -0.914582
thorax -15.3832 -1.73417 2.67511
lowerneck 7.91405 -6.30229 -11.3415
upperneck 20.8385 -11.0508 12.2509
head 6.29926 -5.63441 5.47627
rclavicle -5.68524e-014 7.95139e-015
rhumerus 64.2018 17.6553 -76.1243
rradius 96.5793
rwrist -377.503
rhand -17.8939 -37.8676
rfingers 7.12502
rthumb 8.37273 -67.6816
lclavicle -5.68524e-014 7.95139e-015
lhumerus 44.7983 -20.2726 94.7988
lradius 85.4381
lwrist 23.9646
lhand -19.4804 -8.53592
lfingers 7.12502
lthumb 6.84143 21.3335
rfemur 1.93807 -16.2245 21.5201
rtibia 70.1792
rfoot 0.408968 -19.8677
rtoes 18.951
lfemur -7.27599 -0.779686 3.83819
ltibia 56.4714
lfoot -0.746629 -1.70283
ltoes -3.3163
1294
root -11.8991 18.3183 8.18329 -15.5418 21.6841 -10.2143
lowerback 17.3777 -2.68825 -5.16824
upperback -5.10754 -4.97731 -0.926275
thorax -15.2907 -1.82615 3.3545
lowerneck 8.32355 -5.98541 -12.0348
upperneck 20.4397 -10.6874 12.6301
head 6.10913 -5.50545 5.75572
rclavicle -5.52621e-014 -3.49861e-014
rhumerus 64.2953 18.6941 -76.061
rradius 96.6441
rwrist -376.596
rhand -17.5703 -37.8938
rfingers 7.12502
rthumb 8.68507 -67.6951
lclavicle -5.52621e-014 -3.49861e-014
lhumerus 44.5372 -19.7258 95.0017
lradius 85.2088
lwrist 24.3
lhand -19.5269 -9.50404
lfingers 7.12502
lthumb 6.79658 20.3669
rfemur 2.15773 -16.2971 20.8316
rtibia 68.6991
rfoot 0.820456 -20.3601
rtoes 18.8097
lfemur -7.49153 -1.27144 2.7055
ltibia 55.2154
lfoot -0.972767 -1.04368
ltoes -2.20943
